<svg width="162" height="148" viewBox="0 0 162 148" fill="none" xmlns="http://www.w3.org/2000/svg">
<path d="M13.3648 131.75L13.4568 133.098L11.4672 132.967L11.4001 132.963L5.39008 132.568C3.28035 132.429 1.61854 130.717 1.5428 128.604L0 85.1931H9.70258L11.0506 123.137L28.1979 85.1931H33.0567L13.1885 129.157L13.3648 131.75Z" fill="white"/>
<path d="M70.4217 88.9202L61.5836 132.939L51.709 132.955L60.6564 89.0933L70.4217 88.9202Z" fill="white"/>
<path d="M144.293 132.955L137.172 132.284L135.988 132.128C131.551 131.542 128.53 127.331 129.395 122.941L134.081 99.1517L143.859 98.9277L138.476 125.782L138.122 127.548C137.738 129.466 138.805 131.386 140.644 132.056C142.47 132.721 144.008 132.921 144.294 132.956L144.293 132.955Z" fill="white"/>
<path d="M161.999 98.5112L154.298 134.875C152.786 142.012 146.632 147.217 139.343 147.523L129.191 147.95L130.011 143.733L134.942 143.663C139.688 143.594 143.755 140.247 144.736 135.602L152.511 98.7287L162 98.5112H161.999Z" fill="white"/>
<path d="M55.1063 98.6283L54.6498 101.106L52.2458 114.134C51.4646 118.368 47.7677 121.437 43.4628 121.426L40.3945 121.419L37.0319 121.41C35.7271 121.407 34.4224 121.34 33.1241 121.209C39.9812 121.541 41.3444 117.725 41.6063 116.491C41.7231 115.939 41.8399 115.386 41.9709 114.837L44.8498 102.817L41.484 103.405C38.4222 103.939 35.9706 106.243 35.2479 109.265L32.3418 121.399L32.2369 121.836L31.4179 125.255C31.0078 126.967 32.3029 128.613 34.0632 128.619L38.6667 128.63L43.8566 128.642L43.1372 133.112L37.6529 132.861L32.3159 132.617C30.5589 132.536 28.8202 132.173 27.1952 131.498C24.1734 130.244 22.5527 128.392 22.332 124.586C22.2325 122.845 22.4705 121.101 22.993 119.437L25.409 111.741C27.748 104.289 34.5673 99.1487 42.3755 98.9496L45.7943 98.8631L55.1053 98.6272L55.1063 98.6283Z" fill="white"/>
<path d="M130.524 98.6747L127.358 98.6585L125.745 98.6509L124.794 99.9557L116.806 110.908L116.289 109.427L115.228 106.391L114.703 104.89L112.957 99.8951L112.498 98.5838L111.108 98.5763L102.849 98.5352L101.46 98.5276L101.919 99.8378L107.256 115.101L95.236 131.586L94.285 132.89L95.8982 132.898L99.1601 132.914L100.773 132.922L101.724 131.618L109.366 121.138L109.884 122.62L110.913 125.563L111.438 127.065L113.05 131.675L113.507 132.985L114.897 132.993L123.155 133.035L124.545 133.043L124.086 131.731L118.886 116.854L131.184 99.986L132.135 98.6812L130.521 98.6736L130.524 98.6747ZM118.362 115.353L117.425 116.639L117.95 118.14L122.699 131.725L114.44 131.684L112.377 125.783L111.852 124.28L110.822 121.338L110.305 119.856L110.297 119.836L109.78 118.355L108.843 119.64L100.113 131.612L96.8513 131.596L107.783 116.605L108.72 115.32L108.195 113.819L103.31 99.8475L111.569 99.8897L113.767 106.178L114.292 107.679L115.352 110.713L115.87 112.194L115.878 112.215L116.396 113.696L117.333 112.411L126.409 99.9644L129.574 99.9806L118.364 115.355L118.362 115.353Z" fill="white"/>
<path d="M91.5104 98.9277H85.2753C78.2267 98.9277 72.0176 103.564 70.0139 110.322L66.7292 121.41C65.0641 127.025 69.2479 132.668 75.1043 132.708L81.7537 132.754C88.5611 132.801 94.5797 128.341 96.5131 121.813L99.9471 110.227C101.619 104.588 97.3938 98.9288 91.5114 98.9288L91.5104 98.9277ZM87.5051 122.544C86.7316 126.158 83.6027 128.788 79.9079 128.926L75.074 129.107L79.3259 109.218C80.1027 105.587 83.2543 102.952 86.9652 102.832L91.7527 102.679L87.5051 122.543V122.544Z" fill="white"/>
<path d="M1.23619 134.984L1.92335 137.248L1.95087 137.248L2.69928 135.004L3.39461 135.013L2.33254 137.966L1.52422 137.955L0.539409 134.975L1.23619 134.984ZM4.46322 138.038C4.23434 138.035 4.03795 137.986 3.87404 137.891C3.71111 137.795 3.58635 137.661 3.49977 137.489C3.4132 137.316 3.37147 137.112 3.37459 136.877C3.37762 136.649 3.42471 136.448 3.51585 136.277C3.60699 136.105 3.73384 135.972 3.8964 135.877C4.05993 135.783 4.25082 135.737 4.46907 135.74C4.61587 135.742 4.7522 135.767 4.87809 135.816C5.00495 135.865 5.11508 135.936 5.20848 136.031C5.30285 136.126 5.37565 136.245 5.42688 136.387C5.47812 136.529 5.50249 136.695 5.49998 136.884L5.49773 137.053L3.61889 137.028L3.62396 136.646L4.92191 136.663C4.92309 136.574 4.90482 136.495 4.8671 136.426C4.82938 136.357 4.77649 136.303 4.70844 136.263C4.64136 136.223 4.56292 136.202 4.4731 136.201C4.37943 136.2 4.29609 136.22 4.22308 136.263C4.15105 136.304 4.09428 136.361 4.05275 136.433C4.01125 136.504 3.98943 136.583 3.98729 136.671L3.98247 137.035C3.98101 137.145 4.00003 137.24 4.03953 137.321C4.07999 137.402 4.1376 137.464 4.21235 137.509C4.2871 137.553 4.37614 137.576 4.47947 137.577C4.54804 137.578 4.61094 137.569 4.66818 137.551C4.72541 137.532 4.77457 137.504 4.81564 137.466C4.85671 137.428 4.88824 137.381 4.91023 137.325L5.48048 137.37C5.44969 137.507 5.38871 137.626 5.29754 137.727C5.20735 137.828 5.09137 137.905 4.94962 137.96C4.80885 138.014 4.64671 138.04 4.46322 138.038ZM6.54424 135.055L6.50489 138.022L5.88778 138.013L5.92713 135.047L6.54424 135.055ZM8.00398 138.085C7.77896 138.082 7.585 138.031 7.42209 137.934C7.26016 137.835 7.13592 137.699 7.04935 137.526C6.96279 137.352 6.92103 137.151 6.92405 136.923C6.9271 136.693 6.97419 136.493 7.06532 136.322C7.15646 136.15 7.28427 136.018 7.44874 135.924C7.6142 135.83 7.80944 135.784 8.03445 135.787C8.25947 135.79 8.45294 135.841 8.61487 135.94C8.77778 136.038 8.90251 136.174 8.98906 136.348C9.07563 136.521 9.11739 136.722 9.11434 136.952C9.11132 137.18 9.06424 137.38 8.9731 137.551C8.88197 137.722 8.75368 137.855 8.58822 137.949C8.42374 138.043 8.22899 138.088 8.00398 138.085ZM8.01322 137.607C8.11558 137.608 8.20144 137.58 8.27077 137.523C8.34012 137.465 8.39285 137.386 8.42896 137.285C8.46604 137.184 8.48544 137.069 8.48715 136.939C8.48887 136.81 8.47253 136.694 8.43815 136.592C8.40473 136.491 8.35412 136.41 8.28634 136.35C8.21855 136.29 8.13347 136.26 8.03111 136.258C7.92777 136.257 7.84046 136.285 7.76918 136.343C7.69887 136.401 7.64517 136.481 7.6081 136.581C7.57199 136.682 7.55307 136.798 7.55135 136.927C7.54964 137.056 7.56549 137.172 7.59891 137.274C7.6333 137.376 7.68487 137.457 7.75362 137.516C7.82335 137.575 7.90988 137.605 8.01322 137.607ZM9.96651 135.842L10.3647 136.625L10.7937 135.853L11.4267 135.861L10.7673 136.965L11.4146 138.087L10.7844 138.078L10.3557 137.303L9.91382 138.067L9.27643 138.058L9.95175 136.955L9.32912 135.834L9.96651 135.842ZM12.1336 138.931C12.0554 138.93 11.9821 138.922 11.9137 138.909C11.8462 138.896 11.7904 138.881 11.7462 138.862L11.8914 138.403C11.9635 138.426 12.0286 138.439 12.0865 138.442C12.1454 138.445 12.1962 138.432 12.2391 138.403C12.283 138.375 12.3189 138.326 12.3468 138.257L12.3843 138.163L11.6165 135.864L12.2654 135.872L12.7044 137.513L12.7276 137.513L13.2143 135.885L13.8676 135.894L12.9701 138.348C12.927 138.467 12.8691 138.571 12.7964 138.658C12.7248 138.747 12.6345 138.815 12.5257 138.862C12.4169 138.91 12.2862 138.933 12.1336 138.931ZM17.7528 136.242L17.1183 136.234C17.1078 136.152 17.0851 136.078 17.0502 136.014C17.0154 135.949 16.9702 135.893 16.9148 135.847C16.8594 135.801 16.7952 135.765 16.7221 135.74C16.65 135.715 16.5714 135.702 16.4864 135.701C16.3329 135.699 16.1986 135.735 16.0837 135.81C15.9687 135.884 15.8789 135.993 15.8142 136.137C15.7495 136.28 15.7158 136.454 15.7131 136.66C15.7103 136.872 15.7393 137.05 15.8002 137.194C15.862 137.339 15.9494 137.449 16.0624 137.524C16.1754 137.599 16.3067 137.637 16.4564 137.639C16.5404 137.64 16.6183 137.63 16.69 137.609C16.7628 137.588 16.8274 137.556 16.884 137.514C16.9406 137.472 16.9876 137.42 17.0252 137.358C17.0636 137.297 17.0907 137.227 17.1062 137.148L17.7406 137.159C17.7224 137.295 17.6796 137.426 17.6123 137.552C17.5459 137.676 17.457 137.788 17.3456 137.886C17.2352 137.983 17.1038 138.059 16.9514 138.115C16.8 138.17 16.6291 138.196 16.4389 138.194C16.1743 138.19 15.9385 138.127 15.7314 138.005C15.5254 137.882 15.3635 137.707 15.2458 137.478C15.1291 137.25 15.0728 136.974 15.0771 136.652C15.0814 136.328 15.1459 136.054 15.2706 135.828C15.3953 135.603 15.5627 135.432 15.7729 135.316C15.9831 135.199 16.2186 135.143 16.4793 135.146C16.6512 135.148 16.8102 135.175 16.9564 135.225C17.1035 135.275 17.2334 135.347 17.3462 135.441C17.4589 135.535 17.5501 135.648 17.6198 135.783C17.6905 135.917 17.7348 136.07 17.7528 136.242ZM18.7994 138.227C18.6574 138.225 18.5312 138.198 18.4208 138.148C18.3104 138.096 18.2235 138.021 18.1601 137.923C18.0977 137.823 18.0674 137.7 18.0694 137.553C18.071 137.43 18.0951 137.326 18.1416 137.243C18.1881 137.159 18.2508 137.093 18.3297 137.042C18.4086 136.992 18.498 136.955 18.5978 136.93C18.6986 136.905 18.8041 136.888 18.9143 136.879C19.0439 136.867 19.1484 136.856 19.2277 136.846C19.3071 136.834 19.3648 136.817 19.4008 136.793C19.4369 136.769 19.4552 136.734 19.4558 136.686L19.456 136.678C19.4572 136.586 19.4291 136.515 19.3719 136.464C19.3156 136.413 19.2348 136.387 19.1295 136.385C19.0184 136.384 18.9297 136.407 18.8634 136.456C18.7971 136.503 18.7528 136.563 18.7306 136.636L18.1605 136.582C18.1913 136.448 18.2498 136.331 18.3361 136.234C18.4224 136.136 18.533 136.061 18.6679 136.01C18.8039 135.957 18.9607 135.932 19.1384 135.935C19.262 135.936 19.3801 135.952 19.4927 135.983C19.6063 136.013 19.7066 136.06 19.7937 136.122C19.8817 136.184 19.9507 136.263 20.0006 136.359C20.0505 136.454 20.0746 136.568 20.0729 136.7L20.053 138.201L19.4677 138.193L19.4718 137.885L19.4544 137.885C19.4178 137.954 19.3692 138.014 19.3086 138.067C19.248 138.118 19.1755 138.158 19.0911 138.187C19.0067 138.215 18.9095 138.228 18.7994 138.227ZM18.9817 137.803C19.0725 137.804 19.1529 137.787 19.2229 137.753C19.2929 137.717 19.3482 137.668 19.3886 137.607C19.429 137.546 19.4497 137.476 19.4508 137.398L19.4539 137.162C19.4344 137.174 19.4077 137.185 19.3738 137.195C19.3408 137.205 19.3035 137.213 19.2618 137.221C19.2202 137.229 19.1786 137.235 19.137 137.242C19.0954 137.247 19.0576 137.252 19.0238 137.256C18.9512 137.266 18.8877 137.282 18.8333 137.304C18.7789 137.327 18.7365 137.357 18.7061 137.397C18.6756 137.435 18.66 137.483 18.6592 137.541C18.6581 137.625 18.6877 137.69 18.7479 137.735C18.8092 137.779 18.8871 137.802 18.9817 137.803ZM20.5317 138.208L20.5612 135.983L21.1595 135.99L21.1544 136.379L21.1775 136.379C21.2199 136.241 21.2894 136.138 21.3859 136.069C21.4825 135.999 21.5931 135.964 21.7177 135.966C21.7486 135.966 21.7818 135.969 21.8175 135.973C21.8532 135.977 21.8845 135.983 21.9115 135.99L21.9042 136.538C21.8754 136.529 21.8354 136.521 21.7843 136.513C21.7332 136.506 21.6864 136.502 21.6439 136.501C21.5531 136.5 21.4717 136.519 21.3998 136.557C21.3287 136.595 21.272 136.648 21.2296 136.717C21.1881 136.786 21.1667 136.866 21.1655 136.957L21.1488 138.216L20.5317 138.208ZM23.1108 138.285C22.8819 138.282 22.6855 138.233 22.5216 138.138C22.3586 138.042 22.2339 137.909 22.1473 137.736C22.0607 137.563 22.019 137.359 22.0221 137.125C22.0252 136.896 22.0722 136.696 22.1634 136.524C22.2545 136.352 22.3814 136.219 22.5439 136.125C22.7075 136.03 22.8983 135.985 23.1166 135.987C23.2634 135.989 23.3997 136.015 23.5256 136.064C23.6525 136.112 23.7626 136.183 23.856 136.278C23.9504 136.373 24.0232 136.492 24.0744 136.635C24.1257 136.776 24.15 136.942 24.1475 137.131L24.1453 137.301L22.2664 137.276L22.2715 136.893L23.5694 136.911C23.5706 136.822 23.5524 136.743 23.5146 136.674C23.4769 136.605 23.424 136.55 23.356 136.511C23.2889 136.47 23.2104 136.449 23.1206 136.448C23.027 136.447 22.9436 136.468 22.8706 136.51C22.7986 136.552 22.7418 136.608 22.7003 136.68C22.6588 136.751 22.637 136.831 22.6348 136.918L22.63 137.282C22.6285 137.392 22.6476 137.488 22.6871 137.568C22.7275 137.649 22.7851 137.712 22.8599 137.756C22.9346 137.8 23.0237 137.823 23.127 137.825C23.1956 137.826 23.2585 137.817 23.3157 137.798C23.3729 137.78 23.4221 137.751 23.4632 137.713C23.5042 137.675 23.5358 137.628 23.5578 137.573L24.128 137.618C24.0972 137.755 24.0362 137.874 23.9451 137.975C23.8549 138.075 23.7389 138.153 23.5972 138.208C23.4564 138.262 23.2942 138.288 23.1108 138.285ZM24.5469 138.261L24.5863 135.294L25.7567 135.31C25.9808 135.313 26.1715 135.355 26.3288 135.437C26.4871 135.519 26.6068 135.633 26.6879 135.78C26.77 135.926 26.8097 136.097 26.8071 136.293C26.8045 136.49 26.7598 136.659 26.6729 136.8C26.5861 136.939 26.4615 137.046 26.2992 137.119C26.1379 137.192 25.9433 137.227 25.7154 137.224L24.9317 137.214L24.9384 136.71L25.6207 136.719C25.7404 136.721 25.8401 136.706 25.9197 136.674C25.9994 136.642 26.0589 136.593 26.0984 136.528C26.1389 136.463 26.1598 136.382 26.1611 136.284C26.1624 136.186 26.1437 136.102 26.105 136.034C26.0672 135.966 26.0085 135.914 25.9288 135.878C25.8501 135.842 25.7504 135.822 25.6297 135.821L25.2067 135.815L25.1741 138.269L24.5469 138.261ZM26.167 136.932L26.8864 138.292L26.194 138.283L25.4905 136.923L26.167 136.932ZM27.2123 138.296L27.2418 136.071L27.859 136.079L27.8294 138.304L27.2123 138.296ZM27.5557 135.788C27.4639 135.787 27.3856 135.756 27.3207 135.694C27.2569 135.631 27.2255 135.557 27.2266 135.471C27.2278 135.386 27.2611 135.314 27.3266 135.254C27.3931 135.193 27.4722 135.163 27.5639 135.164C27.6557 135.165 27.7335 135.197 27.7974 135.26C27.8622 135.322 27.8941 135.395 27.893 135.48C27.8918 135.566 27.858 135.639 27.7915 135.7C27.726 135.76 27.6474 135.79 27.5557 135.788ZM29.1432 138.358C28.9742 138.356 28.8217 138.31 28.6857 138.222C28.5507 138.132 28.4443 138.002 28.3664 137.83C28.2894 137.659 28.2526 137.448 28.2559 137.2C28.2593 136.945 28.3032 136.734 28.3875 136.566C28.4718 136.397 28.5826 136.271 28.7199 136.189C28.8582 136.106 29.0089 136.066 29.1721 136.068C29.2967 136.069 29.4003 136.092 29.4827 136.136C29.5662 136.178 29.6331 136.231 29.6835 136.295C29.7348 136.357 29.7736 136.419 29.7998 136.479L29.8187 136.479L29.8335 135.364L30.4491 135.372L30.4098 138.339L29.8014 138.331L29.8061 137.974L29.78 137.974C29.7502 138.035 29.7084 138.096 29.6544 138.156C29.6015 138.215 29.5327 138.264 29.4482 138.303C29.3646 138.341 29.263 138.36 29.1432 138.358ZM29.3453 137.87C29.4448 137.871 29.5291 137.845 29.5984 137.792C29.6687 137.738 29.7228 137.662 29.7608 137.564C29.7998 137.466 29.8201 137.35 29.8219 137.218C29.8237 137.086 29.8068 136.971 29.7714 136.873C29.736 136.775 29.6839 136.699 29.6151 136.644C29.5463 136.59 29.4621 136.563 29.3626 136.561C29.2612 136.56 29.1754 136.587 29.1051 136.641C29.0349 136.695 28.9812 136.77 28.9442 136.867C28.9072 136.964 28.8878 137.077 28.8861 137.206C28.8844 137.335 28.9007 137.45 28.9351 137.55C28.9705 137.649 29.0221 137.727 29.09 137.784C29.1588 137.84 29.2439 137.868 29.3453 137.87ZM31.9306 138.402C31.7017 138.399 31.5053 138.35 31.3414 138.255C31.1785 138.159 31.0537 138.026 30.9671 137.853C30.8806 137.68 30.8388 137.476 30.842 137.242C30.845 137.013 30.8921 136.813 30.9832 136.641C31.0744 136.469 31.2012 136.336 31.3638 136.242C31.5273 136.147 31.7182 136.102 31.9364 136.104C32.0832 136.106 32.2196 136.132 32.3455 136.181C32.4723 136.229 32.5824 136.3 32.6758 136.395C32.7702 136.49 32.843 136.609 32.8942 136.752C32.9455 136.893 32.9699 137.059 32.9673 137.248L32.9651 137.418L31.0863 137.393L31.0913 137.01L32.3893 137.028C32.3905 136.939 32.3722 136.86 32.3345 136.791C32.2967 136.722 32.2439 136.667 32.1758 136.628C32.1087 136.587 32.0303 136.566 31.9405 136.565C31.8468 136.564 31.7634 136.585 31.6904 136.627C31.6184 136.669 31.5616 136.725 31.5201 136.797C31.4786 136.868 31.4568 136.948 31.4547 137.035L31.4498 137.399C31.4484 137.509 31.4674 137.605 31.5069 137.685C31.5474 137.766 31.605 137.829 31.6797 137.873C31.7545 137.917 31.8435 137.94 31.9468 137.942C32.0154 137.943 32.0783 137.934 32.1355 137.915C32.1928 137.897 32.2419 137.868 32.283 137.83C32.3241 137.792 32.3556 137.745 32.3776 137.69L32.9478 137.735C32.9171 137.872 32.8561 137.99 32.7649 138.092C32.6747 138.192 32.5587 138.27 32.417 138.325C32.2762 138.379 32.1141 138.405 31.9306 138.402ZM33.7153 138.42C33.6197 138.419 33.5381 138.384 33.4704 138.315C33.4037 138.246 33.371 138.163 33.3723 138.068C33.3735 137.973 33.4084 137.893 33.4769 137.826C33.5464 137.759 33.6289 137.726 33.7245 137.728C33.8172 137.729 33.8979 137.764 33.9666 137.832C34.0352 137.901 34.0689 137.982 34.0676 138.077C34.0668 138.141 34.0496 138.199 34.016 138.252C33.9835 138.303 33.9409 138.345 33.8883 138.376C33.8358 138.406 33.7781 138.421 33.7153 138.42ZM33.736 136.861C33.6404 136.86 33.5588 136.825 33.4911 136.757C33.4244 136.688 33.3917 136.606 33.393 136.509C33.3942 136.415 33.4291 136.334 33.4976 136.269C33.567 136.202 33.6496 136.169 33.7452 136.17C33.8379 136.172 33.9186 136.207 33.9872 136.275C34.0559 136.343 34.0896 136.424 34.0883 136.518C34.0874 136.583 34.0702 136.642 34.0367 136.694C34.0041 136.746 33.9616 136.787 33.909 136.817C33.8565 136.848 33.7988 136.862 33.736 136.861ZM35.4454 135.955L35.4522 135.438L37.8888 135.471L37.8819 135.988L36.9737 135.976L36.9412 138.425L36.3212 138.417L36.3537 135.967L35.4454 135.955ZM38.8733 137.164L38.8562 138.451L38.2391 138.442L38.2785 135.476L38.8782 135.484L38.8631 136.618L38.8892 136.618C38.9412 136.488 39.0237 136.386 39.1367 136.313C39.2497 136.239 39.3907 136.203 39.5597 136.206C39.7142 136.208 39.8485 136.243 39.9625 136.312C40.0775 136.381 40.1661 136.478 40.2282 136.604C40.2912 136.73 40.3211 136.879 40.3178 137.053L40.299 138.47L39.6819 138.462L39.6993 137.155C39.702 137.018 39.6687 136.911 39.5992 136.833C39.5307 136.756 39.4337 136.717 39.3081 136.715C39.2241 136.714 39.1495 136.731 39.0843 136.766C39.0201 136.801 38.9692 136.852 38.9316 136.92C38.895 136.987 38.8755 137.069 38.8733 137.164ZM41.7981 138.533C41.5692 138.53 41.3728 138.481 41.2089 138.386C41.046 138.29 40.9212 138.156 40.8347 137.984C40.7481 137.811 40.7064 137.607 40.7095 137.373C40.7125 137.144 40.7596 136.943 40.8508 136.772C40.9419 136.6 41.0687 136.467 41.2313 136.373C41.3948 136.278 41.5857 136.232 41.804 136.235C41.9508 136.237 42.0871 136.263 42.213 136.312C42.3398 136.36 42.45 136.431 42.5434 136.526C42.6377 136.621 42.7105 136.74 42.7618 136.883C42.813 137.024 42.8374 137.19 42.8349 137.379L42.8326 137.549L40.9538 137.524L40.9589 137.141L42.2568 137.158C42.258 137.07 42.2397 136.991 42.202 136.922C42.1643 136.852 42.1114 136.798 42.0433 136.759C41.9763 136.718 41.8978 136.697 41.808 136.696C41.7143 136.695 41.631 136.716 41.558 136.758C41.486 136.8 41.4292 136.856 41.3877 136.928C41.3461 136.999 41.3243 137.078 41.3222 137.166L41.3174 137.53C41.3159 137.64 41.3349 137.735 41.3744 137.816C41.4149 137.897 41.4725 137.959 41.5472 138.004C41.622 138.048 41.711 138.071 41.8144 138.073C41.8829 138.074 41.9458 138.065 42.0031 138.046C42.0603 138.028 42.1095 137.999 42.1505 137.961C42.1916 137.923 42.2231 137.876 42.2451 137.82L42.8154 137.866C42.7846 138.002 42.7236 138.121 42.6324 138.223C42.5422 138.323 42.4263 138.4 42.2845 138.456C42.1437 138.51 41.9816 138.536 41.7981 138.533ZM46.8216 136.628L46.1871 136.619C46.1766 136.537 46.1539 136.464 46.119 136.4C46.0842 136.335 46.039 136.279 45.9836 136.233C45.9282 136.187 45.864 136.151 45.7909 136.126C45.7188 136.101 45.6402 136.088 45.5552 136.087C45.4017 136.085 45.2674 136.121 45.1525 136.196C45.0375 136.27 44.9477 136.378 44.883 136.522C44.8183 136.666 44.7846 136.84 44.7819 137.046C44.7791 137.257 44.8081 137.435 44.8689 137.58C44.9308 137.725 45.0182 137.835 45.1312 137.909C45.2442 137.984 45.3755 138.023 45.5252 138.025C45.6092 138.026 45.6871 138.016 45.7588 137.995C45.8316 137.973 45.8962 137.942 45.9528 137.9C46.0094 137.857 46.0564 137.805 46.094 137.744C46.1324 137.683 46.1595 137.613 46.175 137.534L46.8094 137.545C46.7912 137.681 46.7484 137.812 46.6811 137.937C46.6147 138.062 46.5258 138.173 46.4144 138.271C46.304 138.368 46.1726 138.445 46.0202 138.501C45.8688 138.556 45.6979 138.582 45.5077 138.579C45.2431 138.576 45.0073 138.513 44.8002 138.39C44.5942 138.268 44.4323 138.092 44.3146 137.864C44.1979 137.635 44.1416 137.36 44.1459 137.037C44.1502 136.714 44.2147 136.439 44.3394 136.214C44.4641 135.989 44.6315 135.818 44.8417 135.702C45.0519 135.585 45.2874 135.528 45.5481 135.532C45.72 135.534 45.879 135.56 46.0252 135.61C46.1723 135.661 46.3022 135.733 46.415 135.827C46.5277 135.92 46.6189 136.034 46.6886 136.168C46.7593 136.303 46.8036 136.456 46.8216 136.628ZM48.239 138.619C48.014 138.616 47.82 138.565 47.6571 138.467C47.4952 138.369 47.3709 138.233 47.2844 138.06C47.1978 137.886 47.156 137.685 47.1591 137.457C47.1621 137.227 47.2092 137.027 47.3003 136.856C47.3915 136.684 47.5193 136.552 47.6838 136.458C47.8492 136.364 48.0444 136.318 48.2695 136.321C48.4945 136.324 48.6879 136.375 48.8499 136.474C49.0128 136.571 49.1375 136.707 49.2241 136.881C49.3106 137.055 49.3524 137.256 49.3493 137.486C49.3463 137.714 49.2992 137.914 49.2081 138.085C49.117 138.256 48.9887 138.389 48.8232 138.483C48.6587 138.576 48.464 138.622 48.239 138.619ZM48.2482 138.141C48.3506 138.142 48.4364 138.114 48.5058 138.057C48.5751 137.999 48.6279 137.92 48.664 137.819C48.701 137.718 48.7204 137.603 48.7222 137.473C48.7239 137.344 48.7075 137.228 48.6732 137.126C48.6397 137.024 48.5891 136.944 48.5213 136.884C48.4536 136.824 48.3685 136.793 48.2661 136.792C48.1628 136.791 48.0755 136.819 48.0042 136.877C47.9339 136.935 47.8802 137.014 47.8431 137.115C47.807 137.216 47.7881 137.331 47.7864 137.461C47.7846 137.59 47.8005 137.706 47.8339 137.808C47.8683 137.91 47.9199 137.99 47.9886 138.05C48.0584 138.109 48.1449 138.139 48.2482 138.141ZM49.736 138.595L49.7655 136.37L50.3536 136.378L50.3484 136.77L50.3745 136.771C50.4226 136.641 50.5012 136.539 50.6104 136.465C50.7195 136.391 50.8494 136.355 51.0001 136.357C51.1527 136.359 51.2821 136.399 51.3882 136.477C51.4944 136.554 51.5645 136.657 51.5986 136.787L51.6217 136.787C51.6688 136.66 51.7523 136.56 51.8721 136.485C51.9928 136.409 52.1348 136.372 52.298 136.375C52.5057 136.377 52.6733 136.446 52.801 136.58C52.9296 136.713 52.9923 136.9 52.9891 137.141L52.9693 138.638L52.3536 138.63L52.3718 137.255C52.3735 137.131 52.3419 137.038 52.277 136.976C52.2122 136.913 52.1305 136.881 52.032 136.88C51.92 136.878 51.8321 136.913 51.7684 136.983C51.7047 137.053 51.672 137.146 51.6705 137.262L51.6525 138.62L51.0542 138.612L51.0726 137.225C51.0741 137.116 51.0438 137.028 50.9819 136.963C50.921 136.897 50.8398 136.864 50.7384 136.862C50.6698 136.861 50.6078 136.878 50.5523 136.912C50.4977 136.945 50.4541 136.992 50.4214 137.054C50.3888 137.114 50.3719 137.185 50.3708 137.268L50.3531 138.603L49.736 138.595ZM53.4456 139.479L53.4862 136.419L54.0946 136.427L54.0897 136.801L54.1172 136.801C54.145 136.742 54.185 136.682 54.237 136.62C54.2899 136.558 54.3582 136.507 54.4418 136.467C54.5264 136.425 54.631 136.405 54.7556 136.407C54.9178 136.409 55.067 136.454 55.203 136.541C55.339 136.626 55.4469 136.755 55.5267 136.926C55.6066 137.096 55.6448 137.309 55.6414 137.563C55.6381 137.812 55.5953 138.021 55.5129 138.191C55.4314 138.36 55.3215 138.487 55.1832 138.573C55.0459 138.658 54.8928 138.7 54.7238 138.697C54.604 138.696 54.5024 138.675 54.4189 138.634C54.3364 138.593 54.2689 138.543 54.2166 138.482C54.1643 138.42 54.1246 138.359 54.0974 138.296L54.0785 138.296L54.0627 139.487L53.4456 139.479ZM54.0755 137.54C54.0738 137.672 54.0906 137.788 54.126 137.887C54.1614 137.986 54.2135 138.063 54.2823 138.119C54.3511 138.174 54.4352 138.202 54.5347 138.204C54.6351 138.205 54.7205 138.179 54.7908 138.125C54.861 138.069 54.9147 137.993 54.9517 137.895C54.9898 137.796 55.0096 137.682 55.0113 137.552C55.013 137.424 54.9967 137.311 54.9622 137.213C54.9278 137.115 54.8762 137.038 54.8074 136.982C54.7386 136.926 54.6535 136.897 54.5521 136.896C54.4516 136.894 54.3663 136.92 54.2961 136.972C54.2268 137.024 54.1731 137.099 54.1352 137.196C54.0972 137.293 54.0773 137.408 54.0755 137.54ZM56.6721 138.729C56.5301 138.727 56.4039 138.701 56.2935 138.65C56.1831 138.598 56.0962 138.523 56.0328 138.425C55.9704 138.326 55.9401 138.203 55.9421 138.056C55.9437 137.932 55.9678 137.829 56.0143 137.745C56.0608 137.662 56.1235 137.595 56.2024 137.545C56.2813 137.495 56.3707 137.457 56.4705 137.433C56.5713 137.408 56.6768 137.391 56.787 137.382C56.9166 137.37 57.0211 137.359 57.1004 137.348C57.1798 137.337 57.2375 137.319 57.2735 137.295C57.3096 137.272 57.3279 137.236 57.3285 137.189L57.3287 137.18C57.3299 137.088 57.3018 137.017 57.2446 136.966C57.1882 136.915 57.1075 136.889 57.0022 136.888C56.8911 136.886 56.8024 136.91 56.7361 136.958C56.6698 137.005 56.6255 137.066 56.6033 137.139L56.0332 137.085C56.064 136.95 56.1225 136.834 56.2088 136.736C56.2951 136.638 56.4057 136.563 56.5406 136.512C56.6766 136.46 56.8334 136.435 57.0111 136.437C57.1347 136.439 57.2528 136.455 57.3654 136.485C57.479 136.516 57.5793 136.562 57.6664 136.624C57.7544 136.686 57.8234 136.765 57.8733 136.861C57.9232 136.957 57.9473 137.071 57.9456 137.203L57.9257 138.704L57.3404 138.696L57.3445 138.387L57.3271 138.387C57.2905 138.456 57.2419 138.517 57.1813 138.569C57.1207 138.62 57.0482 138.661 56.9638 138.689C56.8794 138.717 56.7822 138.73 56.6721 138.729ZM56.8544 138.305C56.9452 138.307 57.0256 138.29 57.0956 138.255C57.1656 138.219 57.2209 138.171 57.2613 138.109C57.3017 138.048 57.3224 137.978 57.3234 137.9L57.3266 137.664C57.3071 137.676 57.2804 137.688 57.2464 137.698C57.2135 137.707 57.1762 137.716 57.1345 137.724C57.0929 137.731 57.0513 137.738 57.0097 137.744C56.9681 137.749 56.9303 137.754 56.8965 137.758C56.8239 137.768 56.7604 137.784 56.706 137.807C56.6516 137.829 56.6092 137.86 56.5787 137.899C56.5483 137.937 56.5327 137.985 56.5319 138.043C56.5308 138.127 56.5604 138.192 56.6206 138.237C56.6819 138.281 56.7598 138.304 56.8544 138.305ZM60.2768 137.144L59.7114 137.171C59.7024 137.123 59.6822 137.079 59.6509 137.04C59.6195 137 59.5779 136.968 59.5261 136.944C59.4752 136.919 59.4141 136.906 59.3426 136.906C59.247 136.904 59.1661 136.923 59.0999 136.963C59.0337 137.002 59.0001 137.055 58.9992 137.121C58.9985 137.174 59.0192 137.22 59.0612 137.257C59.1032 137.294 59.1757 137.324 59.2788 137.348L59.6804 137.435C59.8961 137.482 60.0565 137.555 60.1614 137.655C60.2663 137.755 60.3177 137.885 60.3156 138.046C60.3137 138.191 60.269 138.319 60.1816 138.428C60.0951 138.537 59.9771 138.621 59.8276 138.681C59.679 138.74 59.5082 138.768 59.315 138.766C59.0205 138.762 58.7866 138.697 58.6134 138.572C58.4412 138.446 58.3416 138.277 58.3145 138.064L58.9219 138.04C58.939 138.13 58.9825 138.199 59.0524 138.248C59.1223 138.295 59.2123 138.319 59.3224 138.321C59.4305 138.322 59.5177 138.303 59.5839 138.262C59.6511 138.22 59.6857 138.166 59.6875 138.1C59.6873 138.044 59.6642 137.997 59.6184 137.961C59.5725 137.924 59.5014 137.895 59.4051 137.874L59.0208 137.792C58.8041 137.746 58.6433 137.669 58.5385 137.56C58.4346 137.451 58.3838 137.314 58.386 137.148C58.3879 137.005 58.4282 136.882 58.5068 136.78C58.5864 136.678 58.6971 136.599 58.8388 136.545C58.9815 136.491 59.148 136.465 59.3383 136.468C59.6193 136.472 59.8396 136.534 59.9993 136.655C60.16 136.776 60.2525 136.939 60.2768 137.144ZM62.5674 137.174L62.002 137.202C61.993 137.153 61.9728 137.109 61.9415 137.07C61.9101 137.03 61.8685 136.998 61.8167 136.975C61.7658 136.95 61.7047 136.937 61.6332 136.936C61.5376 136.935 61.4567 136.954 61.3905 136.994C61.3243 137.032 61.2907 137.085 61.2899 137.152C61.2891 137.205 61.3098 137.25 61.3518 137.287C61.3938 137.324 61.4663 137.355 61.5694 137.378L61.971 137.465C62.1867 137.512 62.3471 137.586 62.452 137.686C62.5569 137.786 62.6083 137.916 62.6062 138.076C62.6043 138.222 62.5596 138.349 62.4722 138.458C62.3857 138.567 62.2677 138.652 62.1182 138.711C61.9696 138.77 61.7988 138.798 61.6056 138.796C61.3111 138.792 61.0772 138.728 60.904 138.603C60.7319 138.477 60.6322 138.307 60.6051 138.094L61.2125 138.071C61.2296 138.161 61.2731 138.23 61.343 138.278C61.4129 138.325 61.5029 138.35 61.613 138.351C61.7211 138.353 61.8083 138.333 61.8745 138.292C61.9417 138.251 61.9763 138.197 61.9781 138.13C61.9779 138.074 61.9548 138.028 61.909 137.991C61.8631 137.954 61.792 137.925 61.6957 137.905L61.3114 137.823C61.0947 137.776 60.9339 137.699 60.8291 137.59C60.7252 137.482 60.6744 137.344 60.6766 137.178C60.6785 137.035 60.7188 136.913 60.7974 136.81C60.877 136.708 60.9877 136.63 61.1294 136.576C61.2721 136.522 61.4386 136.496 61.6289 136.498C61.9099 136.502 62.1303 136.564 62.29 136.685C62.4506 136.806 62.5431 136.969 62.5674 137.174ZM62.9856 138.771L63.0152 136.546L63.6323 136.554L63.6027 138.779L62.9856 138.771ZM63.329 136.263C63.2372 136.262 63.1589 136.23 63.094 136.169C63.0302 136.106 62.9988 136.032 62.9999 135.946C63.0011 135.861 63.0344 135.788 63.0999 135.728C63.1664 135.667 63.2455 135.637 63.3372 135.639C63.429 135.64 63.5068 135.672 63.5707 135.734C63.6355 135.796 63.6674 135.87 63.6663 135.954C63.6651 136.04 63.6313 136.114 63.5648 136.175C63.4993 136.235 63.4207 136.264 63.329 136.263ZM65.1018 138.842C64.8768 138.839 64.6829 138.789 64.5199 138.691C64.358 138.592 64.2338 138.456 64.1472 138.283C64.0606 138.109 64.0189 137.908 64.0219 137.68C64.025 137.451 64.072 137.25 64.1632 137.08C64.2543 136.908 64.3821 136.775 64.5466 136.682C64.7121 136.588 64.9073 136.542 65.1323 136.545C65.3573 136.548 65.5508 136.599 65.7127 136.697C65.8756 136.795 66.0004 136.931 66.0869 137.105C66.1735 137.278 66.2152 137.48 66.2122 137.71C66.2092 137.937 66.1621 138.137 66.071 138.309C65.9798 138.48 65.8515 138.612 65.6861 138.707C65.5216 138.8 65.3269 138.845 65.1018 138.842ZM65.1111 138.364C65.2134 138.366 65.2993 138.338 65.3686 138.281C65.438 138.223 65.4907 138.143 65.5268 138.042C65.5639 137.941 65.5833 137.826 65.585 137.697C65.5867 137.567 65.5704 137.452 65.536 137.35C65.5026 137.248 65.452 137.167 65.3842 137.107C65.3164 137.048 65.2313 137.017 65.129 137.016C65.0256 137.014 64.9383 137.043 64.867 137.101C64.7967 137.159 64.743 137.238 64.706 137.339C64.6698 137.44 64.6509 137.555 64.6492 137.684C64.6475 137.814 64.6633 137.929 64.6968 138.031C64.7312 138.133 64.7827 138.214 64.8515 138.274C64.9212 138.333 65.0077 138.363 65.1111 138.364ZM67.233 137.54L67.2159 138.827L66.5988 138.819L66.6283 136.594L67.2165 136.601L67.2113 136.994L67.2373 136.994C67.2883 136.866 67.3722 136.764 67.4891 136.691C67.606 136.616 67.747 136.579 67.9122 136.582C68.0667 136.584 68.201 136.619 68.315 136.688C68.429 136.758 68.5171 136.855 68.5791 136.982C68.6412 137.107 68.6711 137.256 68.6688 137.429L68.65 138.846L68.0329 138.838L68.0503 137.531C68.053 137.395 68.0197 137.288 67.9502 137.211C67.8807 137.133 67.7842 137.093 67.6606 137.091C67.5775 137.09 67.5039 137.107 67.4397 137.142C67.3764 137.177 67.3265 137.228 67.2898 137.296C67.2542 137.364 67.2352 137.445 67.233 137.54ZM69.7703 138.903C69.6284 138.901 69.5022 138.875 69.3918 138.824C69.2814 138.772 69.1945 138.697 69.1311 138.599C69.0687 138.499 69.0384 138.376 69.0404 138.229C69.042 138.106 69.0661 138.002 69.1126 137.919C69.1591 137.836 69.2218 137.769 69.3007 137.719C69.3796 137.668 69.469 137.631 69.5688 137.606C69.6695 137.582 69.7751 137.565 69.8853 137.555C70.0149 137.544 70.1193 137.532 70.1987 137.522C70.278 137.51 70.3358 137.493 70.3718 137.469C70.4079 137.445 70.4262 137.41 70.4268 137.363L70.4269 137.354C70.4282 137.262 70.4001 137.191 70.3428 137.14C70.2865 137.089 70.2057 137.063 70.1005 137.061C69.9894 137.06 69.9007 137.083 69.8344 137.132C69.7681 137.179 69.7238 137.239 69.7016 137.312L69.1315 137.259C69.1622 137.124 69.2208 137.008 69.3071 136.91C69.3934 136.812 69.504 136.737 69.6389 136.686C69.7749 136.633 69.9317 136.608 70.1094 136.611C70.233 136.612 70.3511 136.629 70.4637 136.659C70.5773 136.689 70.6776 136.736 70.7647 136.798C70.8527 136.86 70.9217 136.939 70.9716 137.035C71.0215 137.13 71.0456 137.244 71.0439 137.377L71.0239 138.877L70.4387 138.87L70.4428 138.561L70.4254 138.561C70.3888 138.63 70.3401 138.691 70.2796 138.743C70.219 138.794 70.1465 138.834 70.0621 138.863C69.9777 138.891 69.8804 138.904 69.7703 138.903ZM69.9527 138.479C70.0435 138.48 70.1239 138.464 70.1939 138.429C70.2639 138.393 70.3191 138.345 70.3596 138.283C70.4 138.222 70.4207 138.152 70.4217 138.074L70.4249 137.838C70.4054 137.85 70.3787 137.861 70.3447 137.872C70.3118 137.881 70.2745 137.889 70.2328 137.898C70.1912 137.905 70.1496 137.911 70.108 137.918C70.0664 137.923 70.0286 137.928 69.9948 137.932C69.9222 137.942 69.8587 137.958 69.8043 137.98C69.7499 138.003 69.7075 138.034 69.677 138.073C69.6466 138.111 69.631 138.159 69.6302 138.217C69.6291 138.301 69.6587 138.366 69.7189 138.411C69.7801 138.455 69.8581 138.478 69.9527 138.479ZM72.7157 136.674L72.7096 137.138L71.3696 137.12L71.3758 136.657L72.7157 136.674ZM71.6871 136.128L72.3042 136.136L72.2766 138.21C72.2759 138.267 72.284 138.312 72.3009 138.344C72.3179 138.375 72.3418 138.397 72.3725 138.41C72.4042 138.423 72.4408 138.43 72.4824 138.43C72.5113 138.431 72.5403 138.429 72.5694 138.424C72.5984 138.419 72.6207 138.415 72.6362 138.412L72.7271 138.872C72.6961 138.882 72.6525 138.892 72.5963 138.904C72.5401 138.917 72.4719 138.924 72.3917 138.926C72.2429 138.93 72.1128 138.908 72.0014 138.861C71.891 138.814 71.8055 138.743 71.7449 138.646C71.6844 138.55 71.6556 138.429 71.6585 138.283L71.6871 136.128ZM74.0778 138.961C73.8489 138.958 73.6525 138.909 73.4886 138.814C73.3256 138.719 73.2009 138.585 73.1143 138.412C73.0277 138.239 72.986 138.036 72.9891 137.801C72.9922 137.572 73.0392 137.372 73.1304 137.2C73.2215 137.028 73.3484 136.895 73.5109 136.801C73.6745 136.706 73.8653 136.661 74.0836 136.664C74.2304 136.665 74.3667 136.691 74.4926 136.74C74.6195 136.788 74.7296 136.859 74.823 136.954C74.9174 137.049 74.9902 137.168 75.0414 137.311C75.0927 137.453 75.117 137.618 75.1145 137.807L75.1123 137.977L73.2334 137.952L73.2385 137.569L74.5364 137.587C74.5376 137.498 74.5194 137.419 74.4816 137.35C74.4439 137.281 74.391 137.226 74.323 137.187C74.2559 137.146 74.1774 137.126 74.0876 137.124C73.994 137.123 73.9106 137.144 73.8376 137.186C73.7656 137.228 73.7088 137.284 73.6673 137.356C73.6258 137.427 73.604 137.507 73.6018 137.595L73.597 137.958C73.5955 138.068 73.6146 138.164 73.6541 138.244C73.6945 138.325 73.7521 138.388 73.8269 138.432C73.9016 138.477 73.9907 138.499 74.094 138.501C74.1626 138.502 74.2255 138.493 74.2827 138.474C74.3399 138.456 74.3891 138.427 74.4302 138.389C74.4712 138.351 74.5028 138.304 74.5248 138.249L75.095 138.294C75.0642 138.431 75.0032 138.55 74.9121 138.651C74.8219 138.751 74.7059 138.829 74.5642 138.884C74.4234 138.938 74.2612 138.964 74.0778 138.961ZM79.1012 137.056L78.4667 137.048C78.4562 136.965 78.4335 136.892 78.3987 136.828C78.3638 136.763 78.3186 136.707 78.2632 136.661C78.2078 136.615 78.1436 136.579 78.0705 136.554C77.9984 136.529 77.9198 136.516 77.8349 136.515C77.6813 136.513 77.547 136.549 77.4321 136.624C77.3171 136.698 77.2273 136.807 77.1626 136.951C77.0979 137.094 77.0642 137.268 77.0615 137.474C77.0587 137.685 77.0877 137.863 77.1486 138.008C77.2104 138.153 77.2978 138.263 77.4108 138.338C77.5238 138.413 77.6551 138.451 77.8048 138.453C77.8888 138.454 77.9667 138.444 78.0385 138.423C78.1112 138.402 78.1758 138.37 78.2324 138.328C78.289 138.286 78.3361 138.234 78.3736 138.172C78.4121 138.111 78.4391 138.041 78.4546 137.962L79.0891 137.973C79.0708 138.109 79.0281 138.24 78.9607 138.365C78.8943 138.49 78.8054 138.601 78.694 138.699C78.5836 138.797 78.4522 138.873 78.2998 138.929C78.1484 138.984 77.9776 139.01 77.7873 139.008C77.5227 139.004 77.2869 138.941 77.0799 138.819C76.8738 138.696 76.7119 138.521 76.5942 138.292C76.4775 138.063 76.4213 137.788 76.4255 137.465C76.4298 137.142 76.4943 136.867 76.619 136.642C76.7437 136.417 76.9112 136.246 77.1213 136.13C77.3315 136.013 77.567 135.956 77.8277 135.96C77.9996 135.962 78.1587 135.988 78.3048 136.039C78.4519 136.089 78.5819 136.161 78.6946 136.255C78.8073 136.349 78.8985 136.462 78.9682 136.596C79.0389 136.731 79.0832 136.884 79.1012 137.056ZM80.148 137.712L80.131 138.998L79.5139 138.99L79.5532 136.023L80.1529 136.031L80.1379 137.165L80.164 137.166C80.2159 137.035 80.2984 136.933 80.4114 136.86C80.5244 136.787 80.6655 136.751 80.8345 136.753C80.989 136.755 81.1233 136.791 81.2373 136.86C81.3523 136.928 81.4408 137.025 81.5029 137.152C81.566 137.277 81.5958 137.427 81.5926 137.601L81.5738 139.017L80.9567 139.009L80.974 137.702C80.9768 137.565 80.9434 137.458 80.8739 137.381C80.8054 137.304 80.7084 137.264 80.5828 137.263C80.4988 137.262 80.4242 137.278 80.3591 137.313C80.2948 137.348 80.2439 137.4 80.2063 137.468C80.1697 137.535 80.1503 137.616 80.148 137.712ZM83.0642 139.081C82.8392 139.078 82.6452 139.027 82.4823 138.929C82.3204 138.831 82.1961 138.695 82.1095 138.522C82.023 138.348 81.9812 138.147 81.9842 137.919C81.9873 137.689 82.0344 137.489 82.1255 137.318C82.2167 137.146 82.3445 137.014 82.5089 136.92C82.6744 136.826 82.8696 136.78 83.0947 136.783C83.3197 136.786 83.5131 136.837 83.6751 136.936C83.838 137.033 83.9627 137.169 84.0493 137.343C84.1358 137.516 84.1776 137.718 84.1745 137.948C84.1715 138.176 84.1244 138.376 84.0333 138.547C83.9422 138.718 83.8139 138.85 83.6484 138.945C83.4839 139.038 83.2892 139.084 83.0642 139.081ZM83.0734 138.603C83.1758 138.604 83.2616 138.576 83.331 138.519C83.4003 138.461 83.453 138.382 83.4892 138.281C83.5262 138.18 83.5456 138.065 83.5474 137.935C83.5491 137.806 83.5327 137.69 83.4983 137.588C83.4649 137.486 83.4143 137.405 83.3465 137.346C83.2787 137.286 83.1937 137.255 83.0913 137.254C82.988 137.253 82.9007 137.281 82.8294 137.339C82.7591 137.397 82.7054 137.476 82.6683 137.577C82.6322 137.678 82.6133 137.793 82.6116 137.923C82.6098 138.052 82.6257 138.168 82.6591 138.27C82.6935 138.371 82.7451 138.452 82.8138 138.512C82.8835 138.571 82.9701 138.601 83.0734 138.603ZM84.5612 139.057L84.5907 136.832L85.2078 136.84L85.1783 139.065L84.5612 139.057ZM84.9045 136.549C84.8127 136.548 84.7344 136.516 84.6696 136.455C84.6057 136.392 84.5743 136.318 84.5755 136.232C84.5766 136.147 84.6099 136.074 84.6754 136.014C84.7419 135.953 84.821 135.924 84.9128 135.925C85.0045 135.926 85.0823 135.958 85.1462 136.021C85.2111 136.082 85.2429 136.156 85.2418 136.241C85.2407 136.327 85.2069 136.4 85.1404 136.461C85.0749 136.521 84.9962 136.55 84.9045 136.549ZM86.6774 139.128C86.4494 139.125 86.254 139.075 86.0911 138.976C85.9292 138.876 85.8055 138.739 85.7199 138.565C85.6353 138.391 85.5944 138.192 85.5974 137.967C85.6005 137.739 85.647 137.539 85.7372 137.369C85.8284 137.197 85.9562 137.064 86.1207 136.97C86.2852 136.874 86.4799 136.828 86.7049 136.831C86.8991 136.834 87.0686 136.871 87.2134 136.943C87.3583 137.016 87.4724 137.116 87.5557 137.245C87.639 137.374 87.6839 137.524 87.6903 137.696L87.1079 137.688C87.093 137.577 87.0507 137.487 86.9811 137.419C86.9125 137.349 86.8217 137.314 86.7087 137.312C86.6131 137.311 86.5292 137.336 86.4571 137.387C86.3859 137.437 86.3298 137.511 86.2889 137.609C86.248 137.707 86.2267 137.826 86.2248 137.966C86.2229 138.108 86.2406 138.229 86.2779 138.329C86.3162 138.429 86.3707 138.506 86.4415 138.559C86.5123 138.612 86.5955 138.639 86.6911 138.64C86.7616 138.641 86.825 138.628 86.8814 138.599C86.9388 138.571 86.9862 138.53 87.0236 138.475C87.062 138.42 87.0875 138.353 87.1002 138.275L87.6825 138.283C87.6706 138.452 87.6222 138.602 87.5375 138.73C87.4537 138.857 87.3389 138.956 87.1931 139.027C87.0472 139.097 86.8753 139.131 86.6774 139.128ZM89.0802 139.16C88.8514 139.157 88.655 139.108 88.491 139.013C88.3281 138.918 88.2034 138.784 88.1168 138.612C88.0302 138.438 87.9885 138.235 87.9916 138C87.9946 137.771 88.0417 137.571 88.1329 137.399C88.224 137.227 88.3509 137.094 88.5134 137C88.6769 136.905 88.8678 136.86 89.0861 136.863C89.2329 136.864 89.3692 136.89 89.4951 136.939C89.622 136.987 89.7321 137.059 89.8255 137.153C89.9199 137.248 89.9927 137.367 90.0439 137.51C90.0951 137.652 90.1195 137.817 90.117 138.006L90.1147 138.176L88.2359 138.151L88.241 137.768L89.5389 137.786C89.5401 137.697 89.5218 137.618 89.4841 137.549C89.4464 137.48 89.3935 137.425 89.3254 137.386C89.2584 137.345 89.1799 137.325 89.0901 137.323C88.9964 137.322 88.9131 137.343 88.8401 137.385C88.7681 137.427 88.7113 137.483 88.6698 137.555C88.6283 137.626 88.6064 137.706 88.6043 137.794L88.5995 138.157C88.598 138.267 88.617 138.363 88.6565 138.443C88.697 138.524 88.7546 138.587 88.8294 138.631C88.9041 138.676 88.9932 138.698 89.0965 138.7C89.1651 138.701 89.228 138.692 89.2852 138.673C89.3424 138.655 89.3916 138.626 89.4326 138.588C89.4737 138.55 89.5053 138.503 89.5272 138.448L90.0975 138.493C90.0667 138.63 90.0057 138.749 89.9146 138.85C89.8244 138.95 89.7084 139.028 89.5666 139.083C89.4259 139.137 89.2637 139.163 89.0802 139.16ZM92.675 136.939L92.6688 137.403L91.2955 137.384L91.3017 136.921L92.675 136.939ZM91.5865 139.15L91.6182 136.764C91.6203 136.603 91.6535 136.47 91.7177 136.364C91.7828 136.259 91.8708 136.18 91.9816 136.129C92.0924 136.077 92.2178 136.052 92.3578 136.054C92.4525 136.055 92.5388 136.064 92.6168 136.079C92.6958 136.095 92.7546 136.109 92.793 136.121L92.6768 136.583C92.6528 136.575 92.6229 136.567 92.5873 136.56C92.5526 136.553 92.5169 136.549 92.4802 136.548C92.3894 136.547 92.3259 136.567 92.2896 136.609C92.2533 136.651 92.2347 136.709 92.2337 136.784L92.2022 139.158L91.5865 139.15ZM93.9475 139.225C93.7225 139.222 93.5286 139.172 93.3657 139.074C93.2037 138.975 93.0795 138.839 92.9929 138.666C92.9064 138.492 92.8646 138.291 92.8676 138.063C92.8707 137.833 92.9178 137.633 93.0089 137.462C93.1 137.291 93.2278 137.158 93.3923 137.065C93.5578 136.97 93.753 136.924 93.978 136.927C94.203 136.93 94.3965 136.981 94.5584 137.08C94.7213 137.178 94.8461 137.314 94.9326 137.488C95.0192 137.661 95.061 137.862 95.0579 138.092C95.0549 138.32 95.0078 138.52 94.9167 138.692C94.8255 138.862 94.6972 138.995 94.5318 139.089C94.3673 139.183 94.1726 139.228 93.9475 139.225ZM93.9568 138.747C94.0592 138.748 94.145 138.72 94.2143 138.663C94.2837 138.605 94.3364 138.526 94.3725 138.425C94.4096 138.324 94.429 138.209 94.4307 138.079C94.4324 137.95 94.4161 137.834 94.3817 137.733C94.3483 137.631 94.2977 137.55 94.2299 137.49C94.1621 137.43 94.077 137.4 93.9747 137.398C93.8713 137.397 93.784 137.425 93.7128 137.483C93.6424 137.541 93.5887 137.621 93.5517 137.722C93.5156 137.822 93.4966 137.938 93.4949 138.067C93.4932 138.196 93.5091 138.312 93.5425 138.414C93.5769 138.516 93.6284 138.597 93.6972 138.657C93.7669 138.715 93.8535 138.746 93.9568 138.747ZM95.4445 139.201L95.474 136.976L96.0723 136.984L96.0672 137.372L96.0904 137.373C96.1327 137.235 96.2022 137.132 96.2988 137.063C96.3953 136.992 96.5059 136.958 96.6305 136.96C96.6614 136.96 96.6947 136.963 96.7303 136.967C96.766 136.971 96.7973 136.977 96.8243 136.984L96.817 137.532C96.7882 137.523 96.7482 137.514 96.6971 137.507C96.646 137.499 96.5992 137.495 96.5567 137.495C96.4659 137.494 96.3845 137.512 96.3126 137.551C96.2415 137.589 96.1848 137.642 96.1424 137.711C96.1009 137.78 96.0795 137.86 96.0783 137.951L96.0616 139.21L95.4445 139.201ZM99.7068 137.144C99.6968 137.027 99.6483 136.936 99.5612 136.87C99.4742 136.804 99.3554 136.77 99.2047 136.768C99.1024 136.766 99.0157 136.78 98.9448 136.808C98.874 136.835 98.8194 136.873 98.781 136.923C98.7437 136.973 98.7246 137.03 98.7237 137.093C98.7211 137.146 98.7316 137.193 98.7552 137.233C98.7798 137.273 98.8136 137.307 98.8567 137.337C98.8998 137.366 98.9497 137.391 99.0064 137.413C99.0631 137.434 99.1237 137.452 99.1882 137.467L99.4539 137.535C99.5829 137.565 99.7012 137.606 99.8087 137.655C99.9162 137.705 100.009 137.766 100.087 137.837C100.166 137.909 100.226 137.993 100.268 138.089C100.311 138.185 100.332 138.295 100.332 138.419C100.328 138.6 100.28 138.757 100.186 138.889C100.094 139.02 99.9612 139.121 99.7883 139.192C99.6164 139.262 99.4098 139.296 99.1683 139.293C98.9288 139.29 98.7207 139.25 98.544 139.174C98.3682 139.099 98.2316 138.988 98.134 138.843C98.0374 138.697 97.9881 138.517 97.9861 138.303L98.5931 138.311C98.5986 138.411 98.6259 138.494 98.6753 138.562C98.7256 138.628 98.793 138.679 98.8776 138.714C98.9631 138.748 99.0599 138.765 99.1681 138.767C99.2743 138.768 99.3667 138.754 99.4454 138.724C99.525 138.694 99.5869 138.652 99.631 138.598C99.6752 138.543 99.6978 138.48 99.6988 138.409C99.6996 138.342 99.6806 138.286 99.6416 138.24C99.6036 138.194 99.5471 138.155 99.4722 138.122C99.3983 138.089 99.3074 138.059 99.1996 138.031L98.8776 137.946C98.6283 137.882 98.432 137.784 98.2889 137.653C98.1458 137.521 98.0761 137.346 98.08 137.127C98.0814 136.947 98.1313 136.791 98.2297 136.658C98.329 136.525 98.4641 136.422 98.6351 136.349C98.8061 136.276 98.9997 136.241 99.216 136.244C99.4362 136.246 99.6279 136.287 99.7911 136.364C99.9552 136.442 100.082 136.548 100.172 136.684C100.262 136.819 100.307 136.975 100.308 137.152L99.7068 137.144ZM101.744 139.328C101.515 139.325 101.319 139.276 101.155 139.181C100.992 139.086 100.867 138.952 100.781 138.779C100.694 138.606 100.653 138.403 100.656 138.168C100.659 137.939 100.706 137.739 100.797 137.567C100.888 137.395 101.015 137.262 101.177 137.168C101.341 137.073 101.532 137.028 101.75 137.031C101.897 137.032 102.033 137.058 102.159 137.107C102.286 137.155 102.396 137.226 102.49 137.321C102.584 137.416 102.657 137.535 102.708 137.678C102.759 137.82 102.784 137.985 102.781 138.174L102.779 138.344L100.9 138.319L100.905 137.936L102.203 137.954C102.204 137.865 102.186 137.786 102.148 137.717C102.11 137.648 102.058 137.593 101.99 137.554C101.922 137.513 101.844 137.493 101.754 137.491C101.66 137.49 101.577 137.511 101.504 137.553C101.432 137.595 101.375 137.651 101.334 137.723C101.292 137.794 101.27 137.874 101.268 137.962L101.264 138.325C101.262 138.435 101.281 138.531 101.321 138.611C101.361 138.692 101.419 138.755 101.493 138.799C101.568 138.844 101.657 138.866 101.761 138.868C101.829 138.869 101.892 138.86 101.949 138.841C102.006 138.823 102.056 138.794 102.097 138.756C102.138 138.718 102.169 138.671 102.191 138.616L102.762 138.661C102.731 138.798 102.67 138.917 102.579 139.018C102.488 139.118 102.372 139.196 102.231 139.251C102.09 139.305 101.928 139.331 101.744 139.328ZM103.803 138.026L103.786 139.312L103.169 139.304L103.198 137.079L103.787 137.087L103.781 137.479L103.807 137.479C103.858 137.351 103.942 137.249 104.059 137.176C104.176 137.101 104.317 137.065 104.482 137.067C104.637 137.069 104.771 137.104 104.885 137.174C104.999 137.243 105.087 137.34 105.149 137.467C105.211 137.592 105.241 137.741 105.239 137.914L105.22 139.331L104.603 139.323L104.62 138.016C104.623 137.88 104.59 137.773 104.52 137.696C104.451 137.618 104.354 137.578 104.231 137.576C104.148 137.575 104.074 137.592 104.01 137.627C103.946 137.662 103.897 137.713 103.86 137.782C103.824 137.849 103.805 137.93 103.803 138.026ZM105.706 139.337L105.736 137.112L106.353 137.121L106.324 139.346L105.706 139.337ZM106.05 136.83C105.958 136.828 105.88 136.797 105.815 136.735C105.751 136.673 105.72 136.598 105.721 136.512C105.722 136.427 105.755 136.355 105.821 136.295C105.887 136.234 105.966 136.204 106.058 136.205C106.15 136.207 106.228 136.238 106.291 136.301C106.356 136.363 106.388 136.436 106.387 136.521C106.386 136.607 106.352 136.681 106.286 136.742C106.22 136.802 106.142 136.831 106.05 136.83ZM107.823 139.409C107.598 139.406 107.404 139.356 107.241 139.258C107.079 139.159 106.955 139.023 106.868 138.85C106.781 138.676 106.74 138.475 106.743 138.247C106.746 138.017 106.793 137.817 106.884 137.646C106.975 137.475 107.103 137.342 107.267 137.249C107.433 137.154 107.628 137.109 107.853 137.111C108.078 137.114 108.272 137.165 108.434 137.264C108.596 137.362 108.721 137.498 108.808 137.672C108.894 137.845 108.936 138.046 108.933 138.276C108.93 138.504 108.883 138.704 108.792 138.876C108.701 139.046 108.572 139.179 108.407 139.273C108.242 139.367 108.048 139.412 107.823 139.409ZM107.832 138.931C107.934 138.932 108.02 138.905 108.089 138.847C108.159 138.789 108.212 138.71 108.248 138.609C108.285 138.508 108.304 138.393 108.306 138.264C108.308 138.134 108.291 138.018 108.257 137.917C108.223 137.815 108.173 137.734 108.105 137.674C108.037 137.614 107.952 137.584 107.85 137.582C107.746 137.581 107.659 137.609 107.588 137.667C107.518 137.725 107.464 137.805 107.427 137.906C107.391 138.007 107.372 138.122 107.37 138.251C107.368 138.381 107.384 138.496 107.418 138.598C107.452 138.7 107.504 138.781 107.572 138.841C107.642 138.899 107.729 138.93 107.832 138.931ZM109.32 139.385L109.349 137.16L109.947 137.168L109.942 137.556L109.965 137.557C110.008 137.419 110.077 137.316 110.174 137.247C110.27 137.176 110.381 137.142 110.506 137.144C110.536 137.144 110.57 137.147 110.605 137.151C110.641 137.155 110.672 137.161 110.699 137.168L110.692 137.716C110.663 137.707 110.623 137.698 110.572 137.691C110.521 137.683 110.474 137.679 110.432 137.679C110.341 137.678 110.26 137.696 110.188 137.735C110.117 137.773 110.06 137.826 110.017 137.895C109.976 137.964 109.955 138.044 109.953 138.135L109.937 139.394L109.32 139.385ZM112.861 137.842L112.296 137.869C112.287 137.82 112.267 137.777 112.235 137.738C112.204 137.698 112.162 137.666 112.11 137.642C112.06 137.617 111.998 137.604 111.927 137.603C111.831 137.602 111.75 137.621 111.684 137.661C111.618 137.699 111.584 137.752 111.584 137.819C111.583 137.872 111.604 137.917 111.646 137.954C111.688 137.992 111.76 138.022 111.863 138.046L112.265 138.132C112.481 138.179 112.641 138.253 112.746 138.353C112.851 138.453 112.902 138.583 112.9 138.743C112.898 138.889 112.853 139.016 112.766 139.125C112.679 139.234 112.561 139.319 112.412 139.379C112.263 139.437 112.093 139.466 111.899 139.463C111.605 139.459 111.371 139.395 111.198 139.27C111.026 139.144 110.926 138.974 110.899 138.762L111.506 138.738C111.523 138.828 111.567 138.897 111.637 138.945C111.707 138.993 111.797 139.017 111.907 139.018C112.015 139.02 112.102 139 112.168 138.96C112.236 138.918 112.27 138.864 112.272 138.797C112.272 138.741 112.249 138.695 112.203 138.659C112.157 138.621 112.086 138.592 111.989 138.572L111.605 138.49C111.388 138.444 111.228 138.366 111.123 138.257C111.019 138.149 110.968 138.012 110.97 137.845C110.972 137.702 111.013 137.58 111.091 137.478C111.171 137.375 111.281 137.297 111.423 137.243C111.566 137.189 111.732 137.163 111.923 137.165C112.204 137.169 112.424 137.232 112.584 137.352C112.744 137.473 112.837 137.636 112.861 137.842ZM114.857 139.501C114.715 139.499 114.589 139.473 114.479 139.422C114.369 139.37 114.282 139.295 114.218 139.197C114.156 139.097 114.126 138.974 114.127 138.828C114.129 138.704 114.153 138.6 114.2 138.517C114.246 138.434 114.309 138.367 114.388 138.317C114.467 138.267 114.556 138.229 114.656 138.204C114.757 138.18 114.862 138.163 114.972 138.153C115.102 138.142 115.206 138.131 115.286 138.12C115.365 138.108 115.423 138.091 115.459 138.067C115.495 138.044 115.513 138.008 115.514 137.961L115.514 137.952C115.515 137.86 115.487 137.789 115.43 137.738C115.374 137.687 115.293 137.661 115.188 137.659C115.077 137.658 114.988 137.681 114.922 137.73C114.855 137.777 114.811 137.837 114.789 137.911L114.219 137.857C114.249 137.722 114.308 137.606 114.394 137.508C114.48 137.41 114.591 137.335 114.726 137.284C114.862 137.232 115.019 137.207 115.196 137.209C115.32 137.211 115.438 137.227 115.551 137.257C115.664 137.288 115.765 137.334 115.852 137.396C115.94 137.458 116.009 137.537 116.059 137.633C116.109 137.729 116.133 137.842 116.131 137.975L116.111 139.475L115.526 139.468L115.53 139.159L115.513 139.159C115.476 139.228 115.427 139.289 115.367 139.341C115.306 139.392 115.234 139.432 115.149 139.461C115.065 139.489 114.968 139.502 114.857 139.501ZM115.04 139.077C115.131 139.079 115.211 139.062 115.281 139.027C115.351 138.991 115.406 138.943 115.447 138.881C115.487 138.82 115.508 138.75 115.509 138.672L115.512 138.436C115.492 138.448 115.466 138.459 115.432 138.47C115.399 138.479 115.362 138.488 115.32 138.496C115.278 138.503 115.237 138.51 115.195 138.516C115.153 138.521 115.116 138.526 115.082 138.53C115.009 138.54 114.946 138.556 114.891 138.578C114.837 138.601 114.795 138.632 114.764 138.671C114.734 138.709 114.718 138.757 114.717 138.815C114.716 138.899 114.746 138.964 114.806 139.009C114.867 139.053 114.945 139.076 115.04 139.077ZM117.224 138.204L117.207 139.49L116.59 139.482L116.619 137.257L117.207 137.265L117.202 137.657L117.228 137.657C117.279 137.529 117.363 137.427 117.48 137.354C117.597 137.279 117.738 137.243 117.903 137.245C118.058 137.247 118.192 137.282 118.306 137.352C118.42 137.421 118.508 137.518 118.57 137.645C118.632 137.77 118.662 137.919 118.66 138.092L118.641 139.509L118.024 139.501L118.041 138.194C118.044 138.058 118.011 137.951 117.941 137.874C117.872 137.796 117.775 137.756 117.652 137.754C117.569 137.753 117.495 137.77 117.431 137.805C117.367 137.84 117.317 137.891 117.281 137.96C117.245 138.027 117.226 138.108 117.224 138.204ZM119.947 139.563C119.778 139.56 119.625 139.515 119.489 139.426C119.354 139.336 119.248 139.206 119.17 139.035C119.093 138.863 119.056 138.653 119.06 138.405C119.063 138.15 119.107 137.938 119.191 137.77C119.275 137.602 119.386 137.476 119.524 137.394C119.662 137.311 119.813 137.27 119.976 137.272C120.1 137.274 120.204 137.297 120.286 137.34C120.37 137.383 120.437 137.436 120.487 137.499C120.538 137.562 120.577 137.623 120.603 137.683L120.622 137.684L120.637 136.568L121.253 136.576L121.213 139.543L120.605 139.535L120.61 139.179L120.584 139.178C120.554 139.24 120.512 139.301 120.458 139.361C120.405 139.42 120.336 139.469 120.252 139.507C120.168 139.546 120.067 139.564 119.947 139.563ZM120.149 139.074C120.248 139.075 120.333 139.049 120.402 138.996C120.472 138.942 120.526 138.866 120.564 138.768C120.603 138.67 120.624 138.555 120.626 138.423C120.627 138.29 120.61 138.175 120.575 138.077C120.54 137.979 120.488 137.903 120.419 137.849C120.35 137.795 120.266 137.767 120.166 137.766C120.065 137.765 119.979 137.791 119.909 137.845C119.839 137.899 119.785 137.975 119.748 138.072C119.711 138.169 119.691 138.282 119.69 138.41C119.688 138.54 119.704 138.654 119.739 138.754C119.774 138.853 119.826 138.931 119.894 138.988C119.962 139.044 120.048 139.073 120.149 139.074ZM122.676 139.563L122.716 136.596L123.886 136.611C124.111 136.614 124.302 136.66 124.46 136.748C124.617 136.835 124.736 136.955 124.817 137.108C124.899 137.259 124.939 137.434 124.936 137.631C124.934 137.828 124.889 138.001 124.802 138.151C124.715 138.3 124.59 138.416 124.428 138.498C124.266 138.58 124.072 138.619 123.844 138.616L123.098 138.606L123.104 138.103L123.749 138.112C123.87 138.114 123.97 138.094 124.048 138.054C124.128 138.012 124.188 137.955 124.227 137.881C124.268 137.806 124.289 137.72 124.29 137.622C124.291 137.524 124.273 137.437 124.234 137.364C124.197 137.289 124.138 137.23 124.06 137.189C123.981 137.146 123.881 137.124 123.759 137.123L123.336 137.117L123.304 139.571L122.676 139.563ZM125.88 139.647C125.738 139.645 125.612 139.619 125.502 139.568C125.391 139.516 125.304 139.441 125.241 139.343C125.179 139.244 125.148 139.121 125.15 138.974C125.152 138.85 125.176 138.747 125.222 138.663C125.269 138.58 125.332 138.513 125.411 138.463C125.489 138.413 125.579 138.375 125.679 138.351C125.779 138.326 125.885 138.309 125.995 138.3C126.125 138.288 126.229 138.277 126.309 138.266C126.388 138.255 126.446 138.237 126.482 138.213C126.518 138.19 126.536 138.154 126.537 138.107L126.537 138.098C126.538 138.007 126.51 137.935 126.453 137.884C126.396 137.833 126.316 137.807 126.21 137.806C126.099 137.804 126.011 137.828 125.944 137.876C125.878 137.923 125.834 137.984 125.812 138.057L125.241 138.003C125.272 137.868 125.331 137.752 125.417 137.655C125.503 137.556 125.614 137.481 125.749 137.43C125.885 137.378 126.042 137.353 126.219 137.355C126.343 137.357 126.461 137.373 126.574 137.403C126.687 137.434 126.787 137.48 126.875 137.542C126.963 137.604 127.032 137.683 127.082 137.779C127.131 137.875 127.156 137.989 127.154 138.121L127.134 139.622L126.549 139.614L126.553 139.305L126.535 139.305C126.499 139.374 126.45 139.435 126.389 139.487C126.329 139.539 126.256 139.579 126.172 139.607C126.088 139.635 125.99 139.649 125.88 139.647ZM126.063 139.224C126.153 139.225 126.234 139.208 126.304 139.173C126.374 139.137 126.429 139.089 126.469 139.028C126.51 138.966 126.531 138.896 126.532 138.818L126.535 138.582C126.515 138.594 126.489 138.606 126.455 138.616C126.422 138.625 126.384 138.634 126.343 138.642C126.301 138.649 126.259 138.656 126.218 138.662C126.176 138.667 126.139 138.672 126.105 138.676C126.032 138.686 125.969 138.702 125.914 138.725C125.86 138.747 125.817 138.778 125.787 138.817C125.756 138.855 125.741 138.903 125.74 138.961C125.739 139.045 125.769 139.11 125.829 139.155C125.89 139.2 125.968 139.222 126.063 139.224ZM128.826 137.419L128.819 137.882L127.48 137.864L127.486 137.401L128.826 137.419ZM127.797 136.872L128.414 136.88L128.387 138.954C128.386 139.011 128.394 139.056 128.411 139.088C128.428 139.119 128.452 139.141 128.482 139.154C128.514 139.167 128.551 139.174 128.592 139.174C128.621 139.175 128.65 139.173 128.679 139.168C128.708 139.163 128.731 139.159 128.746 139.156L128.837 139.617C128.806 139.626 128.762 139.637 128.706 139.648C128.65 139.661 128.582 139.668 128.502 139.67C128.353 139.674 128.223 139.653 128.111 139.606C128.001 139.559 127.915 139.487 127.855 139.391C127.794 139.294 127.765 139.173 127.768 139.027L127.797 136.872ZM129.198 139.649L129.228 137.424L129.845 137.432L129.815 139.657L129.198 139.649ZM129.541 137.141C129.45 137.14 129.371 137.109 129.307 137.047C129.243 136.984 129.211 136.91 129.212 136.824C129.214 136.739 129.247 136.667 129.312 136.607C129.379 136.546 129.458 136.516 129.55 136.517C129.641 136.518 129.719 136.55 129.783 136.613C129.848 136.674 129.88 136.748 129.879 136.833C129.878 136.919 129.844 136.992 129.777 137.053C129.712 137.113 129.633 137.143 129.541 137.141ZM131.323 139.721C131.094 139.718 130.898 139.669 130.734 139.574C130.571 139.478 130.446 139.344 130.36 139.172C130.273 138.999 130.231 138.795 130.234 138.56C130.237 138.331 130.284 138.131 130.376 137.959C130.467 137.788 130.594 137.655 130.756 137.56C130.92 137.466 131.111 137.42 131.329 137.423C131.476 137.425 131.612 137.45 131.738 137.499C131.865 137.547 131.975 137.619 132.068 137.714C132.163 137.809 132.235 137.928 132.287 138.07C132.338 138.212 132.362 138.377 132.36 138.567L132.358 138.736L130.479 138.711L130.484 138.329L131.782 138.346C131.783 138.257 131.765 138.178 131.727 138.109C131.689 138.04 131.636 137.986 131.568 137.946C131.501 137.906 131.423 137.885 131.333 137.884C131.239 137.882 131.156 137.903 131.083 137.946C131.011 137.987 130.954 138.044 130.913 138.116C130.871 138.187 130.849 138.266 130.847 138.354L130.842 138.718C130.841 138.828 130.86 138.923 130.899 139.004C130.94 139.084 130.997 139.147 131.072 139.191C131.147 139.236 131.236 139.259 131.339 139.26C131.408 139.261 131.471 139.252 131.528 139.234C131.585 139.215 131.634 139.187 131.675 139.149C131.716 139.111 131.748 139.064 131.77 139.008L132.34 139.053C132.309 139.19 132.248 139.309 132.157 139.41C132.067 139.51 131.951 139.588 131.809 139.643C131.669 139.697 131.506 139.723 131.323 139.721ZM133.382 138.418L133.365 139.704L132.748 139.696L132.777 137.471L133.365 137.479L133.36 137.871L133.386 137.872C133.437 137.743 133.521 137.642 133.638 137.568C133.755 137.493 133.896 137.457 134.061 137.459C134.215 137.461 134.35 137.497 134.464 137.566C134.578 137.635 134.666 137.733 134.728 137.859C134.79 137.985 134.82 138.134 134.818 138.307L134.799 139.723L134.182 139.715L134.199 138.409C134.202 138.272 134.168 138.166 134.099 138.088C134.029 138.01 133.933 137.97 133.809 137.969C133.726 137.968 133.653 137.984 133.588 138.019C133.525 138.054 133.475 138.106 133.439 138.174C133.403 138.241 133.384 138.322 133.382 138.418ZM136.498 137.52L136.492 137.984L135.152 137.966L135.158 137.503L136.498 137.52ZM135.469 136.974L136.087 136.982L136.059 139.056C136.058 139.113 136.066 139.158 136.083 139.19C136.1 139.221 136.124 139.243 136.155 139.256C136.187 139.269 136.223 139.276 136.265 139.276C136.294 139.277 136.323 139.275 136.352 139.27C136.381 139.265 136.403 139.261 136.419 139.258L136.51 139.719C136.479 139.728 136.435 139.738 136.379 139.75C136.323 139.763 136.254 139.77 136.174 139.772C136.025 139.776 135.895 139.754 135.784 139.707C135.673 139.661 135.588 139.589 135.527 139.493C135.467 139.396 135.438 139.275 135.441 139.129L135.469 136.974ZM138.715 138.184L138.15 138.212C138.141 138.163 138.121 138.12 138.089 138.081C138.058 138.041 138.016 138.009 137.964 137.985C137.914 137.96 137.852 137.947 137.781 137.946C137.685 137.945 137.604 137.964 137.538 138.004C137.472 138.042 137.438 138.095 137.438 138.162C137.437 138.215 137.458 138.26 137.5 138.297C137.542 138.335 137.614 138.365 137.717 138.389L138.119 138.475C138.334 138.522 138.495 138.596 138.6 138.696C138.705 138.796 138.756 138.926 138.754 139.086C138.752 139.232 138.707 139.359 138.62 139.468C138.533 139.577 138.415 139.662 138.266 139.722C138.117 139.78 137.947 139.809 137.753 139.806C137.459 139.802 137.225 139.738 137.052 139.613C136.88 139.487 136.78 139.317 136.753 139.105L137.36 139.081C137.377 139.171 137.421 139.24 137.491 139.288C137.561 139.335 137.651 139.36 137.761 139.361C137.869 139.363 137.956 139.343 138.022 139.302C138.089 139.261 138.124 139.207 138.126 139.14C138.126 139.084 138.103 139.038 138.057 139.002C138.011 138.964 137.94 138.935 137.843 138.915L137.459 138.833C137.242 138.786 137.082 138.709 136.977 138.6C136.873 138.492 136.822 138.354 136.824 138.188C136.826 138.045 136.867 137.923 136.945 137.821C137.025 137.718 137.135 137.64 137.277 137.586C137.42 137.532 137.586 137.506 137.777 137.508C138.058 137.512 138.278 137.574 138.438 137.695C138.598 137.816 138.691 137.979 138.715 138.184Z" fill="white"/>
<path d="M119.939 8.36013L119.323 7.74344C116.464 4.88503 113.111 2.81966 109.541 1.543C100.212 -1.79145 89.385 0.279334 81.9111 7.74668L81.3485 8.3082C80.9709 8.6847 80.3607 8.68362 79.9842 8.30711L79.479 7.80078C69.9571 -1.71788 54.9899 -2.46872 44.6101 5.5504C43.7218 6.23634 42.866 6.9861 42.0513 7.80078C36.883 12.9691 34.2994 19.7418 34.2994 26.5157C34.2994 33.2895 36.883 40.0601 42.0513 45.2273L80.602 83.7802C80.9785 84.1567 81.5898 84.1567 81.9663 83.7802L118.711 47.0352L118.709 47.0298L118.711 47.0276L119.939 45.7997C130.286 35.4642 130.286 18.6956 119.939 8.36013ZM80.602 80.1482L56.4029 55.9458C57.2013 55.9177 57.9901 55.5964 58.6013 54.9873C59.878 53.7084 59.8802 51.6409 58.6089 50.3588C59.8931 51.6095 61.9455 51.5998 63.2168 50.3285C64.4956 49.0497 64.4956 46.9714 63.2168 45.6926C64.4956 46.9714 66.5718 46.9714 67.8528 45.6926C69.1348 44.4105 69.1348 42.3354 67.8528 41.0566C69.15 42.3505 71.2597 42.3354 72.5342 41.01C73.786 39.7096 73.6875 37.6161 72.4119 36.3394L60.7814 24.7089L64.5778 20.9146C65.2226 20.2676 65.5461 19.4194 65.5461 18.569C65.5461 17.7187 65.2226 16.8737 64.5778 16.2267C63.2828 14.9349 61.1849 14.9349 59.8899 16.2267L55.8955 20.2211C51.1232 15.808 47.7584 10.8896 45.8964 7.80511C50.1062 4.44253 55.295 2.61951 60.763 2.61951C67.1463 2.61951 73.1466 5.10357 77.6614 9.61839L79.9821 11.9391C80.3586 12.3156 80.9699 12.3156 81.3464 11.9391L83.7233 9.56213C88.236 5.05164 94.2362 2.56757 100.617 2.56757C103.63 2.56757 106.554 3.1226 109.279 4.1807C108.434 10.2275 104.969 24.6061 90.7882 35.5691L86.9355 31.7164C86.2604 31.0435 85.3765 30.7048 84.4904 30.7048C83.6043 30.7048 82.7204 31.0435 82.0453 31.7164C80.694 33.0677 80.694 35.2586 82.0453 36.6067L85.9315 40.4929L74.4091 52.0131C73.0632 53.3568 73.0632 55.5369 74.4091 56.8806C75.0821 57.5514 75.9606 57.8879 76.8445 57.8879C77.7284 57.8879 78.607 57.5514 79.2767 56.8806L79.2604 56.8968C77.9773 58.18 77.908 60.347 79.189 61.6313C79.8338 62.2772 80.6799 62.6017 81.5238 62.6017C82.3677 62.6017 83.2137 62.2783 83.8586 61.6334C82.5743 62.9231 82.5765 65.0112 83.864 66.2954C84.5088 66.9402 85.3538 67.2615 86.1987 67.2615C87.0437 67.2615 87.8887 66.9402 88.5335 66.2954C87.2698 67.5872 87.2774 69.658 88.5595 70.939C89.0452 71.4215 89.6435 71.7244 90.27 71.8456L81.9674 80.1482C81.5909 80.5247 80.9796 80.5247 80.6031 80.1482H80.602Z" fill="white"/>
</svg>
